<mxfile host="app.diagrams.net" agent="Mozilla/5.0 (Windows NT 10.0; Win64; x64) AppleWebKit/537.36 (KHTML, like Gecko) Chrome/131.0.0.0 Safari/537.36 Edg/131.0.0.0" version="24.8.6">
  <diagram id="C5RBs43oDa-KdzZeNtuy" name="Page-1">
    <mxGraphModel dx="1426" dy="827" grid="1" gridSize="10" guides="1" tooltips="1" connect="1" arrows="1" fold="1" page="1" pageScale="1" pageWidth="827" pageHeight="1169" math="0" shadow="0">
      <root>
        <mxCell id="WIyWlLk6GJQsqaUBKTNV-0" />
        <mxCell id="WIyWlLk6GJQsqaUBKTNV-1" parent="WIyWlLk6GJQsqaUBKTNV-0" />
        <mxCell id="zkfFHV4jXpPFQw0GAbJ--0" value="Persona" style="swimlane;fontStyle=2;align=center;verticalAlign=top;childLayout=stackLayout;horizontal=1;startSize=26;horizontalStack=0;resizeParent=1;resizeLast=0;collapsible=1;marginBottom=0;rounded=0;shadow=0;strokeWidth=1;" parent="WIyWlLk6GJQsqaUBKTNV-1" vertex="1">
          <mxGeometry x="390" y="78" width="430" height="268" as="geometry">
            <mxRectangle x="230" y="140" width="160" height="26" as="alternateBounds" />
          </mxGeometry>
        </mxCell>
        <mxCell id="zkfFHV4jXpPFQw0GAbJ--2" value="nombre: String" style="text;align=left;verticalAlign=top;spacingLeft=4;spacingRight=4;overflow=hidden;rotatable=0;points=[[0,0.5],[1,0.5]];portConstraint=eastwest;rounded=0;shadow=0;html=0;" parent="zkfFHV4jXpPFQw0GAbJ--0" vertex="1">
          <mxGeometry y="26" width="430" height="26" as="geometry" />
        </mxCell>
        <mxCell id="zkfFHV4jXpPFQw0GAbJ--1" value="apellido: String" style="text;align=left;verticalAlign=top;spacingLeft=4;spacingRight=4;overflow=hidden;rotatable=0;points=[[0,0.5],[1,0.5]];portConstraint=eastwest;" parent="zkfFHV4jXpPFQw0GAbJ--0" vertex="1">
          <mxGeometry y="52" width="430" height="26" as="geometry" />
        </mxCell>
        <mxCell id="zkfFHV4jXpPFQw0GAbJ--3" value="fechaDeNacimiento: String" style="text;align=left;verticalAlign=top;spacingLeft=4;spacingRight=4;overflow=hidden;rotatable=0;points=[[0,0.5],[1,0.5]];portConstraint=eastwest;rounded=0;shadow=0;html=0;" parent="zkfFHV4jXpPFQw0GAbJ--0" vertex="1">
          <mxGeometry y="78" width="430" height="26" as="geometry" />
        </mxCell>
        <mxCell id="yPbcr4TnpK_Cpqh_BnO5-27" value="tipo: String" style="text;align=left;verticalAlign=top;spacingLeft=4;spacingRight=4;overflow=hidden;rotatable=0;points=[[0,0.5],[1,0.5]];portConstraint=eastwest;rounded=0;shadow=0;html=0;" parent="zkfFHV4jXpPFQw0GAbJ--0" vertex="1">
          <mxGeometry y="104" width="430" height="26" as="geometry" />
        </mxCell>
        <mxCell id="yPbcr4TnpK_Cpqh_BnO5-38" value="actividadesAsociadas: ArrayList&lt;Actividad&gt;" style="text;align=left;verticalAlign=top;spacingLeft=4;spacingRight=4;overflow=hidden;rotatable=0;points=[[0,0.5],[1,0.5]];portConstraint=eastwest;rounded=0;shadow=0;html=0;" parent="zkfFHV4jXpPFQw0GAbJ--0" vertex="1">
          <mxGeometry y="130" width="430" height="26" as="geometry" />
        </mxCell>
        <mxCell id="zkfFHV4jXpPFQw0GAbJ--4" value="" style="line;html=1;strokeWidth=1;align=left;verticalAlign=middle;spacingTop=-1;spacingLeft=3;spacingRight=3;rotatable=0;labelPosition=right;points=[];portConstraint=eastwest;" parent="zkfFHV4jXpPFQw0GAbJ--0" vertex="1">
          <mxGeometry y="156" width="430" height="8" as="geometry" />
        </mxCell>
        <mxCell id="yPbcr4TnpK_Cpqh_BnO5-42" value="Persona(String nombre, String apellido, String fechaDeNacimiento, String tipo)" style="text;align=left;verticalAlign=top;spacingLeft=4;spacingRight=4;overflow=hidden;rotatable=0;points=[[0,0.5],[1,0.5]];portConstraint=eastwest;" parent="zkfFHV4jXpPFQw0GAbJ--0" vertex="1">
          <mxGeometry y="164" width="430" height="26" as="geometry" />
        </mxCell>
        <mxCell id="zkfFHV4jXpPFQw0GAbJ--5" value="mostrarInformacion()" style="text;align=left;verticalAlign=top;spacingLeft=4;spacingRight=4;overflow=hidden;rotatable=0;points=[[0,0.5],[1,0.5]];portConstraint=eastwest;" parent="zkfFHV4jXpPFQw0GAbJ--0" vertex="1">
          <mxGeometry y="190" width="430" height="26" as="geometry" />
        </mxCell>
        <mxCell id="yPbcr4TnpK_Cpqh_BnO5-37" value="asignarActividad()" style="text;align=left;verticalAlign=top;spacingLeft=4;spacingRight=4;overflow=hidden;rotatable=0;points=[[0,0.5],[1,0.5]];portConstraint=eastwest;" parent="zkfFHV4jXpPFQw0GAbJ--0" vertex="1">
          <mxGeometry y="216" width="430" height="26" as="geometry" />
        </mxCell>
        <mxCell id="yPbcr4TnpK_Cpqh_BnO5-39" value="quitarActividad()" style="text;align=left;verticalAlign=top;spacingLeft=4;spacingRight=4;overflow=hidden;rotatable=0;points=[[0,0.5],[1,0.5]];portConstraint=eastwest;" parent="zkfFHV4jXpPFQw0GAbJ--0" vertex="1">
          <mxGeometry y="242" width="430" height="26" as="geometry" />
        </mxCell>
        <mxCell id="yPbcr4TnpK_Cpqh_BnO5-28" value="Actividad" style="swimlane;fontStyle=2;align=center;verticalAlign=top;childLayout=stackLayout;horizontal=1;startSize=26;horizontalStack=0;resizeParent=1;resizeLast=0;collapsible=1;marginBottom=0;rounded=0;shadow=0;strokeWidth=1;" parent="WIyWlLk6GJQsqaUBKTNV-1" vertex="1">
          <mxGeometry x="20" y="104" width="250" height="216" as="geometry">
            <mxRectangle x="230" y="140" width="160" height="26" as="alternateBounds" />
          </mxGeometry>
        </mxCell>
        <mxCell id="yPbcr4TnpK_Cpqh_BnO5-45" value="nombre: String" style="text;align=left;verticalAlign=top;spacingLeft=4;spacingRight=4;overflow=hidden;rotatable=0;points=[[0,0.5],[1,0.5]];portConstraint=eastwest;rounded=0;shadow=0;html=0;" parent="yPbcr4TnpK_Cpqh_BnO5-28" vertex="1">
          <mxGeometry y="26" width="250" height="26" as="geometry" />
        </mxCell>
        <mxCell id="yPbcr4TnpK_Cpqh_BnO5-29" value="descripcion: String" style="text;align=left;verticalAlign=top;spacingLeft=4;spacingRight=4;overflow=hidden;rotatable=0;points=[[0,0.5],[1,0.5]];portConstraint=eastwest;rounded=0;shadow=0;html=0;" parent="yPbcr4TnpK_Cpqh_BnO5-28" vertex="1">
          <mxGeometry y="52" width="250" height="26" as="geometry" />
        </mxCell>
        <mxCell id="yPbcr4TnpK_Cpqh_BnO5-36" value="participantes: ArrayList&lt;Persona&gt;" style="text;align=left;verticalAlign=top;spacingLeft=4;spacingRight=4;overflow=hidden;rotatable=0;points=[[0,0.5],[1,0.5]];portConstraint=eastwest;rounded=0;shadow=0;html=0;" parent="yPbcr4TnpK_Cpqh_BnO5-28" vertex="1">
          <mxGeometry y="78" width="250" height="26" as="geometry" />
        </mxCell>
        <mxCell id="yPbcr4TnpK_Cpqh_BnO5-33" value="" style="line;html=1;strokeWidth=1;align=left;verticalAlign=middle;spacingTop=-1;spacingLeft=3;spacingRight=3;rotatable=0;labelPosition=right;points=[];portConstraint=eastwest;" parent="yPbcr4TnpK_Cpqh_BnO5-28" vertex="1">
          <mxGeometry y="104" width="250" height="8" as="geometry" />
        </mxCell>
        <mxCell id="yPbcr4TnpK_Cpqh_BnO5-46" value="Actividad(String nombre, String descripcion)" style="text;align=left;verticalAlign=top;spacingLeft=4;spacingRight=4;overflow=hidden;rotatable=0;points=[[0,0.5],[1,0.5]];portConstraint=eastwest;fillColor=none;" parent="yPbcr4TnpK_Cpqh_BnO5-28" vertex="1">
          <mxGeometry y="112" width="250" height="26" as="geometry" />
        </mxCell>
        <mxCell id="yPbcr4TnpK_Cpqh_BnO5-40" value="asignarParticipante()" style="text;align=left;verticalAlign=top;spacingLeft=4;spacingRight=4;overflow=hidden;rotatable=0;points=[[0,0.5],[1,0.5]];portConstraint=eastwest;" parent="yPbcr4TnpK_Cpqh_BnO5-28" vertex="1">
          <mxGeometry y="138" width="250" height="26" as="geometry" />
        </mxCell>
        <mxCell id="yPbcr4TnpK_Cpqh_BnO5-41" value="quitarParticipante()" style="text;align=left;verticalAlign=top;spacingLeft=4;spacingRight=4;overflow=hidden;rotatable=0;points=[[0,0.5],[1,0.5]];portConstraint=eastwest;" parent="yPbcr4TnpK_Cpqh_BnO5-28" vertex="1">
          <mxGeometry y="164" width="250" height="26" as="geometry" />
        </mxCell>
        <mxCell id="yPbcr4TnpK_Cpqh_BnO5-34" value="mostrarInformacion()" style="text;align=left;verticalAlign=top;spacingLeft=4;spacingRight=4;overflow=hidden;rotatable=0;points=[[0,0.5],[1,0.5]];portConstraint=eastwest;" parent="yPbcr4TnpK_Cpqh_BnO5-28" vertex="1">
          <mxGeometry y="190" width="250" height="26" as="geometry" />
        </mxCell>
        <mxCell id="yPbcr4TnpK_Cpqh_BnO5-63" style="rounded=0;orthogonalLoop=1;jettySize=auto;html=1;exitX=0.25;exitY=0;exitDx=0;exitDy=0;entryX=0.75;entryY=1;entryDx=0;entryDy=0;startArrow=diamondThin;startFill=0;endArrow=none;endFill=0;startSize=26;" parent="WIyWlLk6GJQsqaUBKTNV-1" source="yPbcr4TnpK_Cpqh_BnO5-47" target="yPbcr4TnpK_Cpqh_BnO5-28" edge="1">
          <mxGeometry relative="1" as="geometry">
            <mxPoint x="220" y="340" as="targetPoint" />
          </mxGeometry>
        </mxCell>
        <mxCell id="yPbcr4TnpK_Cpqh_BnO5-64" style="rounded=0;orthogonalLoop=1;jettySize=auto;html=1;exitX=0.75;exitY=0;exitDx=0;exitDy=0;entryX=0.25;entryY=1;entryDx=0;entryDy=0;startArrow=diamondThin;startFill=0;endArrow=none;endFill=0;startSize=26;" parent="WIyWlLk6GJQsqaUBKTNV-1" source="yPbcr4TnpK_Cpqh_BnO5-47" target="zkfFHV4jXpPFQw0GAbJ--0" edge="1">
          <mxGeometry relative="1" as="geometry" />
        </mxCell>
        <mxCell id="yPbcr4TnpK_Cpqh_BnO5-65" value="0..1" style="edgeLabel;html=1;align=center;verticalAlign=middle;resizable=0;points=[];" parent="yPbcr4TnpK_Cpqh_BnO5-64" vertex="1" connectable="0">
          <mxGeometry x="-0.5571" y="2" relative="1" as="geometry">
            <mxPoint x="-136" y="4" as="offset" />
          </mxGeometry>
        </mxCell>
        <mxCell id="yPbcr4TnpK_Cpqh_BnO5-47" value="Universidad" style="swimlane;fontStyle=2;align=center;verticalAlign=top;childLayout=stackLayout;horizontal=1;startSize=26;horizontalStack=0;resizeParent=1;resizeLast=0;collapsible=1;marginBottom=0;rounded=0;shadow=0;strokeWidth=1;" parent="WIyWlLk6GJQsqaUBKTNV-1" vertex="1">
          <mxGeometry x="220" y="450" width="250" height="320" as="geometry">
            <mxRectangle x="230" y="140" width="160" height="26" as="alternateBounds" />
          </mxGeometry>
        </mxCell>
        <mxCell id="yPbcr4TnpK_Cpqh_BnO5-48" value="nombre: String" style="text;align=left;verticalAlign=top;spacingLeft=4;spacingRight=4;overflow=hidden;rotatable=0;points=[[0,0.5],[1,0.5]];portConstraint=eastwest;rounded=0;shadow=0;html=0;" parent="yPbcr4TnpK_Cpqh_BnO5-47" vertex="1">
          <mxGeometry y="26" width="250" height="26" as="geometry" />
        </mxCell>
        <mxCell id="yPbcr4TnpK_Cpqh_BnO5-50" value="integrantes: ArrayList&lt;Persona&gt;" style="text;align=left;verticalAlign=top;spacingLeft=4;spacingRight=4;overflow=hidden;rotatable=0;points=[[0,0.5],[1,0.5]];portConstraint=eastwest;rounded=0;shadow=0;html=0;" parent="yPbcr4TnpK_Cpqh_BnO5-47" vertex="1">
          <mxGeometry y="52" width="250" height="26" as="geometry" />
        </mxCell>
        <mxCell id="yPbcr4TnpK_Cpqh_BnO5-56" value="actividades: ArrayList&lt;Actividad&gt;" style="text;align=left;verticalAlign=top;spacingLeft=4;spacingRight=4;overflow=hidden;rotatable=0;points=[[0,0.5],[1,0.5]];portConstraint=eastwest;rounded=0;shadow=0;html=0;" parent="yPbcr4TnpK_Cpqh_BnO5-47" vertex="1">
          <mxGeometry y="78" width="250" height="26" as="geometry" />
        </mxCell>
        <mxCell id="yPbcr4TnpK_Cpqh_BnO5-51" value="" style="line;html=1;strokeWidth=1;align=left;verticalAlign=middle;spacingTop=-1;spacingLeft=3;spacingRight=3;rotatable=0;labelPosition=right;points=[];portConstraint=eastwest;" parent="yPbcr4TnpK_Cpqh_BnO5-47" vertex="1">
          <mxGeometry y="104" width="250" height="8" as="geometry" />
        </mxCell>
        <mxCell id="yPbcr4TnpK_Cpqh_BnO5-69" value="Univesidad(String nombre)" style="text;align=left;verticalAlign=top;spacingLeft=4;spacingRight=4;overflow=hidden;rotatable=0;points=[[0,0.5],[1,0.5]];portConstraint=eastwest;" parent="yPbcr4TnpK_Cpqh_BnO5-47" vertex="1">
          <mxGeometry y="112" width="250" height="26" as="geometry" />
        </mxCell>
        <mxCell id="yPbcr4TnpK_Cpqh_BnO5-55" value="asignarIntegrante()" style="text;align=left;verticalAlign=top;spacingLeft=4;spacingRight=4;overflow=hidden;rotatable=0;points=[[0,0.5],[1,0.5]];portConstraint=eastwest;" parent="yPbcr4TnpK_Cpqh_BnO5-47" vertex="1">
          <mxGeometry y="138" width="250" height="26" as="geometry" />
        </mxCell>
        <mxCell id="yPbcr4TnpK_Cpqh_BnO5-57" value="quitarIntegrante()" style="text;align=left;verticalAlign=top;spacingLeft=4;spacingRight=4;overflow=hidden;rotatable=0;points=[[0,0.5],[1,0.5]];portConstraint=eastwest;" parent="yPbcr4TnpK_Cpqh_BnO5-47" vertex="1">
          <mxGeometry y="164" width="250" height="26" as="geometry" />
        </mxCell>
        <mxCell id="yPbcr4TnpK_Cpqh_BnO5-58" value="asignarActividad()" style="text;align=left;verticalAlign=top;spacingLeft=4;spacingRight=4;overflow=hidden;rotatable=0;points=[[0,0.5],[1,0.5]];portConstraint=eastwest;" parent="yPbcr4TnpK_Cpqh_BnO5-47" vertex="1">
          <mxGeometry y="190" width="250" height="26" as="geometry" />
        </mxCell>
        <mxCell id="8mSfushskbWIsOEW52de-0" value="quitarActividad()" style="text;align=left;verticalAlign=top;spacingLeft=4;spacingRight=4;overflow=hidden;rotatable=0;points=[[0,0.5],[1,0.5]];portConstraint=eastwest;" vertex="1" parent="yPbcr4TnpK_Cpqh_BnO5-47">
          <mxGeometry y="216" width="250" height="26" as="geometry" />
        </mxCell>
        <mxCell id="yPbcr4TnpK_Cpqh_BnO5-59" value="mostrarInformacion()" style="text;align=left;verticalAlign=top;spacingLeft=4;spacingRight=4;overflow=hidden;rotatable=0;points=[[0,0.5],[1,0.5]];portConstraint=eastwest;" parent="yPbcr4TnpK_Cpqh_BnO5-47" vertex="1">
          <mxGeometry y="242" width="250" height="26" as="geometry" />
        </mxCell>
        <mxCell id="8mSfushskbWIsOEW52de-1" value="mostrarIntegrantes()" style="text;align=left;verticalAlign=top;spacingLeft=4;spacingRight=4;overflow=hidden;rotatable=0;points=[[0,0.5],[1,0.5]];portConstraint=eastwest;" vertex="1" parent="yPbcr4TnpK_Cpqh_BnO5-47">
          <mxGeometry y="268" width="250" height="26" as="geometry" />
        </mxCell>
        <mxCell id="8mSfushskbWIsOEW52de-2" value="mostrarActividades()" style="text;align=left;verticalAlign=top;spacingLeft=4;spacingRight=4;overflow=hidden;rotatable=0;points=[[0,0.5],[1,0.5]];portConstraint=eastwest;" vertex="1" parent="yPbcr4TnpK_Cpqh_BnO5-47">
          <mxGeometry y="294" width="250" height="26" as="geometry" />
        </mxCell>
        <mxCell id="yPbcr4TnpK_Cpqh_BnO5-60" style="rounded=0;orthogonalLoop=1;jettySize=auto;html=1;exitX=1;exitY=0.5;exitDx=0;exitDy=0;entryX=0;entryY=0.5;entryDx=0;entryDy=0;endArrow=diamondThin;endFill=0;startArrow=diamondThin;startFill=0;endSize=26;startSize=26;" parent="WIyWlLk6GJQsqaUBKTNV-1" source="yPbcr4TnpK_Cpqh_BnO5-45" target="zkfFHV4jXpPFQw0GAbJ--1" edge="1">
          <mxGeometry relative="1" as="geometry" />
        </mxCell>
        <mxCell id="yPbcr4TnpK_Cpqh_BnO5-61" value="0..*" style="edgeLabel;html=1;align=center;verticalAlign=middle;resizable=0;points=[];" parent="yPbcr4TnpK_Cpqh_BnO5-60" vertex="1" connectable="0">
          <mxGeometry x="-0.6889" relative="1" as="geometry">
            <mxPoint x="-8" y="-18" as="offset" />
          </mxGeometry>
        </mxCell>
        <mxCell id="yPbcr4TnpK_Cpqh_BnO5-62" value="0..*" style="edgeLabel;html=1;align=center;verticalAlign=middle;resizable=0;points=[];" parent="WIyWlLk6GJQsqaUBKTNV-1" vertex="1" connectable="0">
          <mxGeometry x="380.0033333333333" y="126" as="geometry" />
        </mxCell>
        <mxCell id="yPbcr4TnpK_Cpqh_BnO5-66" value="1..*" style="edgeLabel;html=1;align=center;verticalAlign=middle;resizable=0;points=[];" parent="WIyWlLk6GJQsqaUBKTNV-1" vertex="1" connectable="0">
          <mxGeometry x="450.00057294178515" y="359.9961057122565" as="geometry">
            <mxPoint x="7" y="-1" as="offset" />
          </mxGeometry>
        </mxCell>
        <mxCell id="yPbcr4TnpK_Cpqh_BnO5-67" value="1" style="edgeLabel;html=1;align=center;verticalAlign=middle;resizable=0;points=[];" parent="WIyWlLk6GJQsqaUBKTNV-1" vertex="1" connectable="0">
          <mxGeometry x="400.00057294178515" y="429.9961057122565" as="geometry" />
        </mxCell>
        <mxCell id="yPbcr4TnpK_Cpqh_BnO5-68" value="0..*" style="edgeLabel;html=1;align=center;verticalAlign=middle;resizable=0;points=[];" parent="WIyWlLk6GJQsqaUBKTNV-1" vertex="1" connectable="0">
          <mxGeometry x="230.00057294178515" y="339.9961057122565" as="geometry">
            <mxPoint x="1" y="-2" as="offset" />
          </mxGeometry>
        </mxCell>
      </root>
    </mxGraphModel>
  </diagram>
</mxfile>
